<?xml version="1.0" encoding="UTF-8"?>
<svg width="1000px" height="996px" viewBox="0 0 1000 996" version="1.1" xmlns="http://www.w3.org/2000/svg" xmlns:xlink="http://www.w3.org/1999/xlink">
    <!-- Generator: Sketch 56.3 (81716) - https://sketch.com -->
    <title>Group 6</title>
    <desc>Created with Sketch.</desc>
    <defs>
        <polygon id="path-1" points="0 0.570237219 1000 0.570237219 1000 975.762935 0 975.762935"></polygon>
    </defs>
    <g id="Primary-Layouts" stroke="none" stroke-width="1" fill="none" fill-rule="evenodd">
        <g id="Group-6">
            <path d="M569.021539,995.584989 C754.374129,969.584216 907.07628,842.263095 969.094923,671.612552 C964.202827,673.406246 958.232283,675.543083 951.10514,677.679919 C867.7207,702.230139 809.21874,658.29242 797.418318,650.696513 C785.617896,643.178593 772.97347,630.716315 770.613386,631.371404 C762.986093,678.490981 719.848126,743.92184 621.381028,773.603586 C567.458569,789.902811 509.40987,790.277147 467.99117,767.115091 L481.651526,801.304469 C487.121921,814.936548 496.296553,837.30314 501.985763,850.872829 C501.985763,850.872829 537.762143,935.878355 569.021539,995.584989" id="Fill-1" fill="#76B83F"></path>
            <g id="Group-5">
                <mask id="mask-2" fill="white">
                    <use xlink:href="#path-1"></use>
                </mask>
                <g id="Clip-4"></g>
                <path d="M113.453125,296.190771 L260.984375,268.70158 C274.421875,266.263653 289.3125,273.874361 294.03125,285.642048 L395.390625,538.655118 C409.1875,565.019111 412,570.848257 420.984375,582.115855 C420.984375,582.115855 490.96875,682.023981 597.65625,657.629083 C669.59375,641.173075 703.1875,587.163615 705.46875,548.735008 C707.828125,536.404723 704.140625,520.902008 697.734375,506.399467 L576.328125,231.898259 C571.453125,220.83382 577.234375,209.956915 589.078125,207.706521 L712.109375,184.765002 C723.390625,182.749024 736.625,189.750251 741.546875,200.455251 L876.015625,488.411942 C881.4375,499.913956 892.421875,518.073387 900.5,528.653366 C900.5,528.653366 928.46875,568.832279 973.28125,561.205943 C984.359375,561.205943 996.984375,555.204892 996.984375,555.204892 C998.953125,537.295504 1000,519.120446 1000,500.632832 C1000,224.4282 776.125,0.560860577 499.9375,0.560860577 C223.828125,0.560860577 0,224.4282 0,500.632832 C0,722.281033 144.171875,910.157693 343.84375,975.762935 C330.359375,948.023701 316.71875,917.330824 305.546875,887.372452 L95.734375,323.4768 C91.125,311.099632 99.203125,298.878741 113.453125,296.190771" id="Fill-3" fill="#76B83F" mask="url(#mask-2)"></path>
            </g>
        </g>
    </g>
</svg>